<svg xmlns="http://www.w3.org/2000/svg" xmlns:xlink="http://www.w3.org/1999/xlink" width="500" zoomAndPan="magnify" viewBox="0 0 375 222.749995" height="297" preserveAspectRatio="xMidYMid meet" version="1.0"><defs><filter x="0%" y="0%" width="100%" height="100%" id="d7c0e46e86"><feColorMatrix values="0 0 0 0 1 0 0 0 0 1 0 0 0 0 1 0 0 0 1 0" color-interpolation-filters="sRGB"></feColorMatrix></filter><g></g><clipPath id="257fca583f"><path d="M 174 160 L 374.789062 160 L 374.789062 217 L 174 217 Z M 174 160 " clip-rule="nonzero"></path></clipPath><clipPath id="014dbe1164"><path d="M 0.210938 160 L 201 160 L 201 217 L 0.210938 217 Z M 0.210938 160 " clip-rule="nonzero"></path></clipPath><clipPath id="6635966e63"><path d="M 0.210938 14.714844 L 374.789062 14.714844 L 374.789062 222.5 L 0.210938 222.5 Z M 0.210938 14.714844 " clip-rule="nonzero"></path></clipPath><clipPath id="c4993cd9e3"><path d="M 187.5 14.714844 C 82.238281 14.714844 -3.09375 100.046875 -3.09375 205.308594 C -3.09375 310.570312 82.238281 395.902344 187.5 395.902344 C 292.761719 395.902344 378.09375 310.570312 378.09375 205.308594 C 378.09375 100.046875 292.761719 14.714844 187.5 14.714844 Z M 187.5 14.714844 " clip-rule="nonzero"></path></clipPath><clipPath id="ef967de4c7"><path d="M 0.210938 0.714844 L 374.789062 0.714844 L 374.789062 208.5 L 0.210938 208.5 Z M 0.210938 0.714844 " clip-rule="nonzero"></path></clipPath><clipPath id="c1e1c4ca92"><path d="M 187.5 0.714844 C 82.238281 0.714844 -3.09375 86.046875 -3.09375 191.308594 C -3.09375 296.570312 82.238281 381.902344 187.5 381.902344 C 292.761719 381.902344 378.09375 296.570312 378.09375 191.308594 C 378.09375 86.046875 292.761719 0.714844 187.5 0.714844 Z M 187.5 0.714844 " clip-rule="nonzero"></path></clipPath><mask id="b90791d1ef"><g filter="url(#d7c0e46e86)"><g transform="matrix(1, 0, 0, 1, 0.000000000000000333, 0.000000000000001776)"><image x="0" y="0" width="376" height="210" preserveAspectRatio="xMidYMid meet"></image></g></g></mask><radialGradient gradientTransform="matrix(1, 0, 0, 1, -3.093388, 0.716546)" gradientUnits="userSpaceOnUse" r="269.539234" cx="190.593374" id="ede193e061" cy="190.593374" fx="190.593374" fy="190.593374"><stop stop-opacity="1" stop-color="rgb(8.628845%, 5.488586%, 10.978699%)" offset="0"></stop><stop stop-opacity="1" stop-color="rgb(8.628845%, 5.488586%, 10.978699%)" offset="1"></stop></radialGradient><clipPath id="1cd31b126b"><rect x="0" width="375" y="0" height="209"></rect></clipPath></defs><path stroke-linecap="butt" transform="matrix(0.749159, 0, 0, 0.749159, 1.624159, 202.734288)" fill="none" stroke-linejoin="miter" d="M 11.248107 1.5018 L 484.97714 1.5018 " stroke="#ffcc00" stroke-width="3" stroke-opacity="1" stroke-miterlimit="4"></path><path stroke-linecap="round" transform="matrix(0.749159, 0, 0, 0.749159, 1.624159, 202.734288)" fill="none" stroke-linejoin="round" d="M 1.497592 1.5018 C 1.497592 -0.985364 3.515479 -2.998037 5.997429 -2.998037 C 8.484592 -2.998037 10.502479 -0.985364 10.502479 1.5018 C 10.502479 3.983749 8.484592 6.001636 5.997429 6.001636 C 3.515479 6.001636 1.497592 3.983749 1.497592 1.5018 " stroke="#ffcc00" stroke-width="3" stroke-opacity="1" stroke-miterlimit="4"></path><path stroke-linecap="round" transform="matrix(0.749159, 0, 0, 0.749159, 1.624159, 202.734288)" fill="none" stroke-linejoin="round" d="M 494.727656 1.5018 C 494.727656 3.983749 492.709768 6.001636 490.227819 6.001636 C 487.740655 6.001636 485.722768 3.983749 485.722768 1.5018 C 485.722768 -0.985364 487.740655 -2.998037 490.227819 -2.998037 C 492.709768 -2.998037 494.727656 -0.985364 494.727656 1.5018 " stroke="#ffcc00" stroke-width="3" stroke-opacity="1" stroke-miterlimit="4"></path><path stroke-linecap="butt" transform="matrix(0, 0.749159, -0.749159, 0, 188.620204, 17.985731)" fill="none" stroke-linejoin="miter" d="M 11.250389 1.500497 L 248.558111 1.500497 " stroke="#ffcc00" stroke-width="3" stroke-opacity="1" stroke-miterlimit="4"></path><path stroke-linecap="round" transform="matrix(0, 0.749159, -0.749159, 0, 188.620204, 17.985731)" fill="none" stroke-linejoin="round" d="M 1.499874 1.500497 C 1.499874 -0.986667 3.512547 -2.99934 5.999711 -2.99934 C 8.486874 -2.99934 10.499547 -0.986667 10.499547 1.500497 C 10.499547 3.98766 8.486874 6.000333 5.999711 6.000333 C 3.512547 6.000333 1.499874 3.98766 1.499874 1.500497 " stroke="#ffcc00" stroke-width="3" stroke-opacity="1" stroke-miterlimit="4"></path><path stroke-linecap="butt" transform="matrix(-0.130435, 0.737717, -0.737717, -0.130435, 221.025624, 21.03024)" fill="none" stroke-linejoin="miter" d="M 11.248228 1.498314 L 248.567769 1.501223 " stroke="#ffcc00" stroke-width="3" stroke-opacity="1" stroke-miterlimit="4"></path><path stroke-linecap="round" transform="matrix(-0.130435, 0.737717, -0.737717, -0.130435, 221.025624, 21.03024)" fill="none" stroke-linejoin="round" d="M 1.500493 1.500915 C 1.499977 -0.987669 3.516098 -3.001491 5.999548 -3.001099 C 8.482997 -3.000708 10.501953 -0.985495 10.501562 1.497955 C 10.502078 3.986539 8.485957 6.000361 6.002508 5.999969 C 3.513923 6.000486 1.500102 3.984364 1.500493 1.500915 " stroke="#ffcc00" stroke-width="3" stroke-opacity="1" stroke-miterlimit="4"></path><path stroke-linecap="butt" transform="matrix(-0.255935, 0.704086, -0.704086, -0.255935, 252.150084, 29.587431)" fill="none" stroke-linejoin="miter" d="M 11.250563 1.499574 L 248.493099 1.49972 " stroke="#ffcc00" stroke-width="3" stroke-opacity="1" stroke-miterlimit="4"></path><path stroke-linecap="round" transform="matrix(-0.255935, 0.704086, -0.704086, -0.255935, 252.150084, 29.587431)" fill="none" stroke-linejoin="round" d="M 1.497282 1.499732 C 1.498028 -0.986032 3.512274 -2.999792 5.998038 -2.999046 C 8.483801 -2.9983 10.502462 -0.985835 10.501716 1.499929 C 10.50097 3.985692 8.486724 5.999452 6.00096 5.998706 C 3.515197 5.997961 1.501437 3.983714 1.497282 1.499732 " stroke="#ffcc00" stroke-width="3" stroke-opacity="1" stroke-miterlimit="4"></path><path stroke-linecap="butt" transform="matrix(-0.374272, 0.648969, -0.648969, -0.374272, 281.471734, 43.489189)" fill="none" stroke-linejoin="miter" d="M 11.251179 1.49726 L 248.49839 1.500287 " stroke="#ffcc00" stroke-width="3" stroke-opacity="1" stroke-miterlimit="4"></path><path stroke-linecap="round" transform="matrix(-0.374272, 0.648969, -0.648969, -0.374272, 281.471734, 43.489189)" fill="none" stroke-linejoin="round" d="M 1.500865 1.498537 C 1.500032 -0.986899 3.51763 -2.999186 5.998549 -2.997414 C 8.483985 -2.998247 10.500789 -0.983254 10.499017 1.497665 C 10.49985 3.9831 8.484856 5.999905 5.999421 6.000738 C 3.513985 6.001571 1.501698 3.983972 1.500865 1.498537 " stroke="#ffcc00" stroke-width="3" stroke-opacity="1" stroke-miterlimit="4"></path><path stroke-linecap="butt" transform="matrix(-0.481051, 0.574307, -0.574307, -0.481051, 307.834997, 62.27719)" fill="none" stroke-linejoin="miter" d="M 11.248353 1.500001 L 248.36049 1.498926 " stroke="#ffcc00" stroke-width="3" stroke-opacity="1" stroke-miterlimit="4"></path><path stroke-linecap="round" transform="matrix(-0.481051, 0.574307, -0.574307, -0.481051, 307.834997, 62.27719)" fill="none" stroke-linejoin="round" d="M 1.499247 1.49724 C 1.500321 -0.986269 3.514089 -2.999522 6.001596 -3.001796 C 8.485105 -3.000722 10.498358 -0.986953 10.500632 1.500553 C 10.499558 3.984063 8.485789 5.997315 5.998283 5.999589 C 3.514773 5.998515 1.501521 3.984747 1.499247 1.49724 " stroke="#ffcc00" stroke-width="3" stroke-opacity="1" stroke-miterlimit="4"></path><path stroke-linecap="butt" transform="matrix(-0.573605, 0.481888, -0.481888, -0.573605, 330.700329, 85.352469)" fill="none" stroke-linejoin="miter" d="M 11.251673 1.500084 L 248.396328 1.499919 " stroke="#ffcc00" stroke-width="3" stroke-opacity="1" stroke-miterlimit="4"></path><path stroke-linecap="round" transform="matrix(-0.573605, 0.481888, -0.481888, -0.573605, 330.700329, 85.352469)" fill="none" stroke-linejoin="round" d="M 1.499857 1.499966 C 1.498412 -0.986897 3.514599 -2.997727 6.001462 -2.999172 C 8.488324 -3.000616 10.499154 -0.984429 10.500599 1.502433 C 10.498051 3.985942 8.485856 6.000126 5.998994 6.001571 C 3.515485 5.999023 1.501301 3.986828 1.499857 1.499966 " stroke="#ffcc00" stroke-width="3" stroke-opacity="1" stroke-miterlimit="4"></path><path stroke-linecap="butt" transform="matrix(-0.649109, 0.374028, -0.374028, -0.649109, 349.252844, 112.281623)" fill="none" stroke-linejoin="miter" d="M 11.248398 1.499307 L 248.333586 1.500396 " stroke="#ffcc00" stroke-width="3" stroke-opacity="1" stroke-miterlimit="4"></path><path stroke-linecap="round" transform="matrix(-0.649109, 0.374028, -0.374028, -0.649109, 349.252844, 112.281623)" fill="none" stroke-linejoin="round" d="M 1.498084 1.501691 C 1.497984 -0.983745 3.514032 -2.999496 5.999467 -2.999596 C 8.484903 -2.999696 10.500654 -0.983648 10.500754 1.501788 C 10.500854 3.987223 8.48741 5.998456 6.001974 5.998556 C 3.516538 5.998657 1.498184 3.987127 1.498084 1.501691 " stroke="#ffcc00" stroke-width="3" stroke-opacity="1" stroke-miterlimit="4"></path><path stroke-linecap="butt" transform="matrix(-0.70388, 0.2565, -0.2565, -0.70388, 362.627912, 141.5576)" fill="none" stroke-linejoin="miter" d="M 11.250053 1.500999 L 248.301549 1.49971 " stroke="#ffcc00" stroke-width="3" stroke-opacity="1" stroke-miterlimit="4"></path><path stroke-linecap="round" transform="matrix(-0.70388, 0.2565, -0.2565, -0.70388, 362.627912, 141.5576)" fill="none" stroke-linejoin="round" d="M 1.499887 1.499691 C 1.501138 -0.986072 3.516515 -2.998701 5.99738 -2.999235 C 8.484929 -3.002884 10.502456 -0.985721 10.501206 1.500042 C 10.499955 3.985806 8.484578 5.998435 5.998814 5.997184 C 3.516164 6.002617 1.498637 3.985455 1.499887 1.499691 " stroke="#ffcc00" stroke-width="3" stroke-opacity="1" stroke-miterlimit="4"></path><g clip-path="url(#257fca583f)"><path stroke-linecap="butt" transform="matrix(-0.737707, 0.13049, -0.13049, -0.737707, 370.773787, 172.912075)" fill="none" stroke-linejoin="miter" d="M 11.251955 1.500467 L 248.187588 1.500142 " stroke="#ffcc00" stroke-width="3" stroke-opacity="1" stroke-miterlimit="4"></path></g><path stroke-linecap="round" transform="matrix(-0.737707, 0.13049, -0.13049, -0.737707, 370.773787, 172.912075)" fill="none" stroke-linejoin="round" d="M 1.498178 1.501371 C 1.498878 -0.987213 3.511941 -2.998051 6.000525 -2.99735 C 8.484882 -3.002693 10.499946 -0.983588 10.500154 1.499862 C 10.500362 3.983311 8.486392 5.999283 5.997808 5.998583 C 3.514358 5.998791 1.498386 3.984821 1.498178 1.501371 " stroke="#ffcc00" stroke-width="3" stroke-opacity="1" stroke-miterlimit="4"></path><g clip-path="url(#014dbe1164)"><path stroke-linecap="butt" transform="matrix(0.737877, 0.129523, -0.129523, 0.737877, 4.561769, 170.942752)" fill="none" stroke-linejoin="miter" d="M 11.249418 1.5016 L 248.151314 1.500588 " stroke="#ffcc00" stroke-width="3" stroke-opacity="1" stroke-miterlimit="4"></path></g><path stroke-linecap="round" transform="matrix(0.737877, 0.129523, -0.129523, 0.737877, 4.561769, 170.942752)" fill="none" stroke-linejoin="round" d="M 1.497454 1.498189 C 1.500915 -0.985258 3.513487 -3.00082 6.00207 -2.99826 C 8.484616 -2.999934 10.500178 -0.987363 10.497618 1.50122 C 10.499292 3.983766 8.48672 5.999328 5.999039 6.001904 C 3.515591 5.998442 1.500029 3.98587 1.497454 1.498189 " stroke="#ffcc00" stroke-width="3" stroke-opacity="1" stroke-miterlimit="4"></path><path stroke-linecap="butt" transform="matrix(0.704041, 0.256057, -0.256057, 0.704041, 13.08576, 139.595009)" fill="none" stroke-linejoin="miter" d="M 11.248477 1.499901 L 248.277639 1.497749 " stroke="#ffcc00" stroke-width="3" stroke-opacity="1" stroke-miterlimit="4"></path><path stroke-linecap="round" transform="matrix(0.704041, 0.256057, -0.256057, 0.704041, 13.08576, 139.595009)" fill="none" stroke-linejoin="round" d="M 1.500095 1.499965 C 1.50041 -0.985799 3.514308 -2.999907 6.000072 -2.999592 C 8.485836 -2.999276 10.499945 -0.985378 10.499629 1.500385 C 10.499314 3.986149 8.485416 6.000258 5.999652 5.999942 C 3.513888 5.999627 1.49978 3.985729 1.500095 1.499965 " stroke="#ffcc00" stroke-width="3" stroke-opacity="1" stroke-miterlimit="4"></path><path stroke-linecap="butt" transform="matrix(0.648962, 0.374283, -0.374283, 0.648962, 26.903218, 110.271338)" fill="none" stroke-linejoin="miter" d="M 11.253259 1.500539 L 248.332325 1.500192 " stroke="#ffcc00" stroke-width="3" stroke-opacity="1" stroke-miterlimit="4"></path><path stroke-linecap="round" transform="matrix(0.648962, 0.374283, -0.374283, 0.648962, 26.903218, 110.271338)" fill="none" stroke-linejoin="round" d="M 1.50034 1.497465 C 1.499464 -0.98797 3.517028 -3.000292 5.997947 -2.998562 C 8.483383 -2.999438 10.500221 -0.984479 10.501097 1.500957 C 10.501972 3.986392 8.484408 5.998714 5.998972 5.99959 C 3.513537 6.000465 1.501215 3.982901 1.50034 1.497465 " stroke="#ffcc00" stroke-width="3" stroke-opacity="1" stroke-miterlimit="4"></path><path stroke-linecap="butt" transform="matrix(0.57419, 0.481192, -0.481192, 0.57419, 45.595782, 83.804643)" fill="none" stroke-linejoin="miter" d="M 11.247327 1.500131 L 248.395009 1.499716 " stroke="#ffcc00" stroke-width="3" stroke-opacity="1" stroke-miterlimit="4"></path><path stroke-linecap="round" transform="matrix(0.57419, 0.481192, -0.481192, 0.57419, 45.595782, 83.804643)" fill="none" stroke-linejoin="round" d="M 1.49822 1.499755 C 1.498687 -0.983755 3.515959 -3.000849 5.999469 -3.000382 C 8.482979 -2.999915 10.500073 -0.982643 10.499606 1.500867 C 10.49914 3.984376 8.485864 5.998121 5.998358 6.001004 C 3.514848 6.000537 1.501103 3.987261 1.49822 1.499755 " stroke="#ffcc00" stroke-width="3" stroke-opacity="1" stroke-miterlimit="4"></path><path stroke-linecap="butt" transform="matrix(0.481261, 0.574132, -0.574132, 0.481261, 68.710861, 60.731815)" fill="none" stroke-linejoin="miter" d="M 11.252929 1.499352 L 248.616328 1.498053 " stroke="#ffcc00" stroke-width="3" stroke-opacity="1" stroke-miterlimit="4"></path><path stroke-linecap="round" transform="matrix(0.481261, 0.574132, -0.574132, 0.481261, 68.710861, 60.731815)" fill="none" stroke-linejoin="round" d="M 1.500473 1.502558 C 1.499657 -0.988297 3.513643 -3.001332 6.001149 -2.998152 C 8.484658 -2.998322 10.497693 -0.984336 10.497863 1.499174 C 10.502028 3.986033 8.488042 5.999068 5.997187 5.999884 C 3.513677 6.000053 1.500643 3.986068 1.500473 1.502558 " stroke="#ffcc00" stroke-width="3" stroke-opacity="1" stroke-miterlimit="4"></path><path stroke-linecap="butt" transform="matrix(0.374868, 0.648624, -0.648624, 0.374868, 95.10065, 42.056802)" fill="none" stroke-linejoin="miter" d="M 11.251308 1.502656 L 249.074445 1.502672 " stroke="#ffcc00" stroke-width="3" stroke-opacity="1" stroke-miterlimit="4"></path><path stroke-linecap="round" transform="matrix(0.374868, 0.648624, -0.648624, 0.374868, 95.10065, 42.056802)" fill="none" stroke-linejoin="round" d="M 1.502904 1.499535 C 1.498899 -0.983993 3.513041 -2.99974 6.001084 -3.001136 C 8.486518 -2.998017 10.497751 -0.986484 10.499146 1.501559 C 10.498637 3.982478 8.484495 5.998225 6.000966 6.00223 C 3.515533 5.999111 1.499785 3.984969 1.502904 1.499535 " stroke="#ffcc00" stroke-width="3" stroke-opacity="1" stroke-miterlimit="4"></path><path stroke-linecap="butt" transform="matrix(0.25663, 0.703833, -0.703833, 0.25663, 124.671659, 28.612067)" fill="none" stroke-linejoin="miter" d="M 11.249077 1.498374 L 248.920267 1.500355 " stroke="#ffcc00" stroke-width="3" stroke-opacity="1" stroke-miterlimit="4"></path><path stroke-linecap="round" transform="matrix(0.25663, 0.703833, -0.703833, 0.25663, 124.671659, 28.612067)" fill="none" stroke-linejoin="round" d="M 1.502025 1.501953 C 1.498836 -0.985597 3.514584 -2.997853 6.002133 -3.001043 C 8.482998 -3.00112 10.500154 -0.983586 10.498444 1.502178 C 10.498521 3.983042 8.485886 6.001984 6.000122 6.000275 C 3.514359 5.998566 1.500316 3.987716 1.502025 1.501953 " stroke="#ffcc00" stroke-width="3" stroke-opacity="1" stroke-miterlimit="4"></path><path stroke-linecap="butt" transform="matrix(0.129666, 0.737852, -0.737852, 0.129666, 156.377625, 20.604232)" fill="none" stroke-linejoin="miter" d="M 11.247686 1.498407 L 248.549453 1.49913 " stroke="#ffcc00" stroke-width="3" stroke-opacity="1" stroke-miterlimit="4"></path><path stroke-linecap="round" transform="matrix(0.129666, 0.737852, -0.737852, 0.129666, 156.377625, 20.604232)" fill="none" stroke-linejoin="round" d="M 1.500856 1.500831 C 1.498779 -0.987752 3.51473 -2.999934 5.998178 -3.002914 C 8.485859 -2.999856 10.49804 -0.983904 10.501021 1.499544 C 10.497963 3.987224 8.487146 6.000308 5.998563 6.002386 C 3.516018 6.000231 1.498701 3.983376 1.500856 1.500831 " stroke="#ffcc00" stroke-width="3" stroke-opacity="1" stroke-miterlimit="4"></path><path stroke-linecap="butt" transform="matrix(-0.746331, 0.0650298, -0.0650298, -0.746331, 367.68494, 189.617931)" fill="none" stroke-linejoin="miter" d="M 11.249734 1.499374 L 241.312578 1.499384 " stroke="#ffcc00" stroke-width="3" stroke-opacity="1" stroke-miterlimit="4"></path><path stroke-linecap="round" transform="matrix(-0.746331, 0.0650298, -0.0650298, -0.746331, 367.68494, 189.617931)" fill="none" stroke-linejoin="round" d="M 1.499062 1.49767 C 1.500625 -0.983079 3.513537 -3.000707 5.999481 -2.998692 C 8.485877 -3.001871 10.497858 -0.984217 10.501037 1.502179 C 10.499474 3.982928 8.486562 6.000557 6.000618 5.998541 C 3.514222 6.00172 1.502241 3.984066 1.499062 1.49767 " stroke="#ffcc00" stroke-width="3" stroke-opacity="1" stroke-miterlimit="4"></path><path stroke-linecap="butt" transform="matrix(-0.723614, 0.193966, -0.193966, -0.723614, 355.827477, 160.232558)" fill="none" stroke-linejoin="miter" d="M 11.251342 1.501919 L 232.229258 1.500402 " stroke="#ffcc00" stroke-width="3" stroke-opacity="1" stroke-miterlimit="4"></path><path stroke-linecap="round" transform="matrix(-0.723614, 0.193966, -0.193966, -0.723614, 355.827477, 160.232558)" fill="none" stroke-linejoin="round" d="M 1.502233 1.501408 C 1.500076 -0.987765 3.513563 -3.00142 6.001386 -2.99854 C 8.485523 -3.002046 10.497828 -0.983523 10.501334 1.500614 C 10.499804 3.9834 8.484967 6.002092 6.002181 6.000562 C 3.514358 5.997682 1.500703 3.984195 1.502233 1.501408 " stroke="#ffcc00" stroke-width="3" stroke-opacity="1" stroke-miterlimit="4"></path><path stroke-linecap="butt" transform="matrix(-0.678795, 0.31698, -0.31698, -0.678795, 341.033049, 133.733818)" fill="none" stroke-linejoin="miter" d="M 11.248874 1.500066 L 225.489885 1.500058 " stroke="#ffcc00" stroke-width="3" stroke-opacity="1" stroke-miterlimit="4"></path><path stroke-linecap="round" transform="matrix(-0.678795, 0.31698, -0.31698, -0.678795, 341.033049, 133.733818)" fill="none" stroke-linejoin="round" d="M 1.500566 1.499806 C 1.499305 -0.986805 3.514554 -2.997886 6.001165 -2.999147 C 8.487776 -3.000408 10.498857 -0.985159 10.500118 1.501452 C 10.501379 3.988063 8.48613 5.999144 5.999519 6.000405 C 3.512908 6.001667 1.501827 3.986418 1.500566 1.499806 " stroke="#ffcc00" stroke-width="3" stroke-opacity="1" stroke-miterlimit="4"></path><path stroke-linecap="butt" transform="matrix(-0.613978, 0.429267, -0.429267, -0.613978, 326.62429, 108.289959)" fill="none" stroke-linejoin="miter" d="M 11.249559 1.4981 L 225.552602 1.49966 " stroke="#ffcc00" stroke-width="3" stroke-opacity="1" stroke-miterlimit="4"></path><path stroke-linecap="round" transform="matrix(-0.613978, 0.429267, -0.429267, -0.613978, 326.62429, 108.289959)" fill="none" stroke-linejoin="round" d="M 1.500009 1.501917 C 1.50159 -0.984596 3.514945 -2.999807 6.001457 -2.998226 C 8.483697 -2.999633 10.498908 -0.986278 10.497327 1.500235 C 10.503007 3.985461 8.485379 5.997685 6.00314 5.999092 C 3.513639 6.001784 1.501416 3.984156 1.500009 1.501917 " stroke="#ffcc00" stroke-width="3" stroke-opacity="1" stroke-miterlimit="4"></path><path stroke-linecap="butt" transform="matrix(-0.529367, 0.530104, -0.530104, -0.529367, 307.724702, 85.386621)" fill="none" stroke-linejoin="miter" d="M 11.249961 1.502888 L 225.614798 1.500768 " stroke="#ffcc00" stroke-width="3" stroke-opacity="1" stroke-miterlimit="4"></path><path stroke-linecap="round" transform="matrix(-0.529367, 0.530104, -0.530104, -0.529367, 307.724702, 85.386621)" fill="none" stroke-linejoin="round" d="M 1.497895 1.499794 C 1.499623 -0.985231 3.514114 -2.996922 5.999144 -3.002568 C 8.484169 -3.000841 10.499545 -0.98266 10.501507 1.49868 C 10.499779 3.983705 8.485283 6.002771 6.000258 6.001043 C 3.515233 5.999315 1.499852 3.988509 1.497895 1.499794 " stroke="#ffcc00" stroke-width="3" stroke-opacity="1" stroke-miterlimit="4"></path><path stroke-linecap="butt" transform="matrix(-0.429184, 0.614036, -0.614036, -0.429184, 285.267953, 66.270757)" fill="none" stroke-linejoin="miter" d="M 11.249565 1.498744 L 225.661977 1.500306 " stroke="#ffcc00" stroke-width="3" stroke-opacity="1" stroke-miterlimit="4"></path><path stroke-linecap="round" transform="matrix(-0.429184, 0.614036, -0.614036, -0.429184, 285.267953, 66.270757)" fill="none" stroke-linejoin="round" d="M 1.49873 1.500883 C 1.497482 -0.985629 3.512962 -2.998715 5.999475 -2.999963 C 8.485988 -3.001211 10.499073 -0.98573 10.500321 1.500782 C 10.501569 3.987295 8.486089 6.00038 5.999576 6.001629 C 3.517337 5.999889 1.499978 3.987396 1.49873 1.500883 " stroke="#ffcc00" stroke-width="3" stroke-opacity="1" stroke-miterlimit="4"></path><path stroke-linecap="butt" transform="matrix(-0.316215, 0.679152, -0.679152, -0.316215, 259.889426, 51.377972)" fill="none" stroke-linejoin="miter" d="M 11.249058 1.501586 L 225.704354 1.499411 " stroke="#ffcc00" stroke-width="3" stroke-opacity="1" stroke-miterlimit="4"></path><path stroke-linecap="round" transform="matrix(-0.316215, 0.679152, -0.679152, -0.316215, 259.889426, 51.377972)" fill="none" stroke-linejoin="round" d="M 1.500431 1.502514 C 1.497567 -0.98662 3.515644 -3.001802 6.000052 -3.002466 C 8.48666 -2.998402 10.499641 -0.985051 10.500305 1.499356 C 10.500968 3.983763 8.48289 5.998946 5.998483 5.999609 C 3.514076 6.000272 1.501094 3.986922 1.500431 1.502514 " stroke="#ffcc00" stroke-width="3" stroke-opacity="1" stroke-miterlimit="4"></path><path stroke-linecap="butt" transform="matrix(-0.194318, 0.723519, -0.723519, -0.194318, 232.44344, 41.166137)" fill="none" stroke-linejoin="miter" d="M 11.251844 1.499795 L 225.730412 1.498094 " stroke="#ffcc00" stroke-width="3" stroke-opacity="1" stroke-miterlimit="4"></path><path stroke-linecap="round" transform="matrix(-0.194318, 0.723519, -0.723519, -0.194318, 232.44344, 41.166137)" fill="none" stroke-linejoin="round" d="M 1.501384 1.500013 C 1.498646 -0.982773 3.516357 -2.998592 5.999143 -3.00133 C 8.483281 -2.999032 10.497748 -0.986356 10.501838 1.501465 C 10.49954 3.985604 8.486864 6.00007 5.99769 5.999124 C 3.514905 6.001862 1.499086 3.984151 1.501384 1.500013 " stroke="#ffcc00" stroke-width="3" stroke-opacity="1" stroke-miterlimit="4"></path><path stroke-linecap="butt" transform="matrix(-0.0649244, 0.746341, -0.746341, -0.0649244, 203.26985, 35.812748)" fill="none" stroke-linejoin="miter" d="M 11.251888 1.497242 L 225.730764 1.4984 " stroke="#ffcc00" stroke-width="3" stroke-opacity="1" stroke-miterlimit="4"></path><path stroke-linecap="round" transform="matrix(-0.0649244, 0.746341, -0.746341, -0.0649244, 203.26985, 35.812748)" fill="none" stroke-linejoin="round" d="M 1.501216 1.497569 C 1.500003 -0.98318 3.512269 -3.00055 5.998213 -3.002214 C 8.484608 -2.998684 10.501979 -0.986418 10.498448 1.499977 C 10.500113 3.985921 8.487395 5.998097 6.001451 5.999761 C 3.515507 6.001425 1.497685 3.983965 1.501216 1.497569 " stroke="#ffcc00" stroke-width="3" stroke-opacity="1" stroke-miterlimit="4"></path><path stroke-linecap="butt" transform="matrix(0.0649686, 0.746337, -0.746337, 0.0649686, 173.950089, 35.617806)" fill="none" stroke-linejoin="miter" d="M 11.252424 1.498845 L 225.716618 1.498637 " stroke="#ffcc00" stroke-width="3" stroke-opacity="1" stroke-miterlimit="4"></path><path stroke-linecap="round" transform="matrix(0.0649686, 0.746337, -0.746337, 0.0649686, 173.950089, 35.617806)" fill="none" stroke-linejoin="round" d="M 1.501752 1.49794 C 1.497917 -0.983261 3.515858 -3.000602 6.001801 -2.998791 C 8.483003 -3.002626 10.500344 -0.984684 10.498532 1.501259 C 10.501915 3.987655 8.484426 5.999801 5.998483 5.99799 C 3.512087 6.001373 1.49994 3.983884 1.501752 1.49794 " stroke="#ffcc00" stroke-width="3" stroke-opacity="1" stroke-miterlimit="4"></path><path stroke-linecap="butt" transform="matrix(0.193556, 0.723723, -0.723723, 0.193556, 144.915315, 40.606511)" fill="none" stroke-linejoin="miter" d="M 11.250624 1.499365 L 225.603955 1.500807 " stroke="#ffcc00" stroke-width="3" stroke-opacity="1" stroke-miterlimit="4"></path><path stroke-linecap="round" transform="matrix(0.193556, 0.723723, -0.723723, 0.193556, 144.915315, 40.606511)" fill="none" stroke-linejoin="round" d="M 1.502863 1.499342 C 1.497949 -0.984792 3.515332 -2.998241 5.998119 -2.998118 C 8.48729 -3.001685 10.500739 -0.984302 10.500616 1.498485 C 10.499146 3.986309 8.4868 6.001105 5.998976 5.999635 C 3.516189 5.999512 1.501393 3.987166 1.502863 1.499342 " stroke="#ffcc00" stroke-width="3" stroke-opacity="1" stroke-miterlimit="4"></path><path stroke-linecap="butt" transform="matrix(0.31629, 0.679117, -0.679117, 0.31629, 116.989762, 50.145542)" fill="none" stroke-linejoin="miter" d="M 11.253099 1.498636 L 226.139292 1.500733 " stroke="#ffcc00" stroke-width="3" stroke-opacity="1" stroke-miterlimit="4"></path><path stroke-linecap="round" transform="matrix(0.31629, 0.679117, -0.679117, 0.31629, 116.989762, 50.145542)" fill="none" stroke-linejoin="round" d="M 1.497544 1.499162 C 1.49848 -0.985245 3.513884 -3.003102 5.998291 -3.002165 C 8.487425 -2.999028 10.500555 -0.985825 10.499619 1.498582 C 10.498682 3.982989 8.483278 6.000846 5.998871 5.999909 C 3.514464 5.998973 1.501334 3.98577 1.497544 1.499162 " stroke="#ffcc00" stroke-width="3" stroke-opacity="1" stroke-miterlimit="4"></path><path stroke-linecap="butt" transform="matrix(0.429358, 0.613915, -0.613915, 0.429358, 91.529179, 65.010429)" fill="none" stroke-linejoin="miter" d="M 11.250805 1.502329 L 225.663185 1.497692 " stroke="#ffcc00" stroke-width="3" stroke-opacity="1" stroke-miterlimit="4"></path><path stroke-linecap="round" transform="matrix(0.429358, 0.613915, -0.613915, 0.429358, 91.529179, 65.010429)" fill="none" stroke-linejoin="round" d="M 1.499971 1.497435 C 1.498933 -0.984804 3.512588 -2.999716 5.9991 -2.997766 C 8.484328 -3.003076 10.500524 -0.98216 10.501562 1.500079 C 10.499611 3.986591 8.485956 6.001503 5.999444 5.999553 C 3.517205 6.000591 1.49802 3.983947 1.499971 1.497435 " stroke="#ffcc00" stroke-width="3" stroke-opacity="1" stroke-miterlimit="4"></path><path stroke-linecap="butt" transform="matrix(0.529367, 0.530104, -0.530104, 0.529367, 68.861371, 83.798528)" fill="none" stroke-linejoin="miter" d="M 11.250266 1.496791 L 225.615103 1.49891 " stroke="#ffcc00" stroke-width="3" stroke-opacity="1" stroke-miterlimit="4"></path><path stroke-linecap="round" transform="matrix(0.529367, 0.530104, -0.530104, 0.529367, 68.861371, 83.798528)" fill="none" stroke-linejoin="round" d="M 1.4982 1.499884 C 1.496473 -0.985141 3.515538 -2.999637 6.000563 -3.001365 C 8.485588 -3.003092 10.500084 -0.984027 10.501812 1.500998 C 10.49985 3.982338 8.484474 6.000519 5.999449 6.002247 C 3.518109 6.000285 1.499928 3.984909 1.4982 1.499884 " stroke="#ffcc00" stroke-width="3" stroke-opacity="1" stroke-miterlimit="4"></path><path stroke-linecap="butt" transform="matrix(0.613932, 0.429333, -0.429333, 0.613932, 49.668566, 106.433157)" fill="none" stroke-linejoin="miter" d="M 11.247884 1.500728 L 225.554327 1.498952 " stroke="#ffcc00" stroke-width="3" stroke-opacity="1" stroke-miterlimit="4"></path><path stroke-linecap="round" transform="matrix(0.613932, 0.429333, -0.429333, 0.613932, 49.668566, 106.433157)" fill="none" stroke-linejoin="round" d="M 1.501322 1.502243 C 1.499471 -0.984269 3.514464 -2.997843 6.000976 -2.999694 C 8.483215 -2.998557 10.501062 -0.986552 10.502913 1.49996 C 10.497503 3.985187 8.482511 5.998761 6.000272 5.997624 C 3.513759 5.999475 1.500185 3.984483 1.501322 1.502243 " stroke="#ffcc00" stroke-width="3" stroke-opacity="1" stroke-miterlimit="4"></path><path stroke-linecap="butt" transform="matrix(0.679102, 0.316322, -0.316322, 0.679102, 34.839981, 131.860424)" fill="none" stroke-linejoin="miter" d="M 11.248081 1.500605 L 225.443468 1.499532 " stroke="#ffcc00" stroke-width="3" stroke-opacity="1" stroke-miterlimit="4"></path><path stroke-linecap="round" transform="matrix(0.679102, 0.316322, -0.316322, 0.679102, 34.839981, 131.860424)" fill="none" stroke-linejoin="round" d="M 1.499454 1.503065 C 1.500926 -0.988271 3.513961 -3.001568 6.000569 -2.997895 C 8.484976 -2.998949 10.498274 -0.985914 10.499327 1.498493 C 10.500381 3.9829 8.48262 5.998399 5.998213 5.999453 C 3.513806 6.000506 1.500508 3.987472 1.499454 1.503065 " stroke="#ffcc00" stroke-width="3" stroke-opacity="1" stroke-miterlimit="4"></path><path stroke-linecap="butt" transform="matrix(0.723558, 0.194174, -0.194174, 0.723558, 24.690027, 159.336187)" fill="none" stroke-linejoin="miter" d="M 11.250172 1.499247 L 225.41564 1.500056 " stroke="#ffcc00" stroke-width="3" stroke-opacity="1" stroke-miterlimit="4"></path><path stroke-linecap="round" transform="matrix(0.723558, 0.194174, -0.194174, 0.723558, 24.690027, 159.336187)" fill="none" stroke-linejoin="round" d="M 1.499712 1.497525 C 1.497468 -0.985261 3.51558 -3.000679 5.999718 -2.997887 C 8.48754 -3.001482 10.501606 -0.988406 10.500165 1.500768 C 10.497373 3.984905 8.484297 5.998971 6.001511 6.001215 C 3.512337 5.999775 1.498271 3.986698 1.499712 1.497525 " stroke="#ffcc00" stroke-width="3" stroke-opacity="1" stroke-miterlimit="4"></path><path stroke-linecap="butt" transform="matrix(0.746265, 0.0657909, -0.0657909, 0.746265, 19.435201, 188.24609)" fill="none" stroke-linejoin="miter" d="M 11.247955 1.499958 L 225.340339 1.500767 " stroke="#ffcc00" stroke-width="3" stroke-opacity="1" stroke-miterlimit="4"></path><path stroke-linecap="round" transform="matrix(0.746265, 0.0657909, -0.0657909, 0.746265, 19.435201, 188.24609)" fill="none" stroke-linejoin="round" d="M 1.501568 1.500761 C 1.502211 -0.985638 3.512591 -3.000149 5.998989 -2.999505 C 8.485388 -2.998862 10.500357 -0.983287 10.499255 1.497917 C 10.498612 3.984315 8.483037 5.999284 6.001833 5.998182 C 3.515435 5.997539 1.500924 3.987159 1.501568 1.500761 " stroke="#ffcc00" stroke-width="3" stroke-opacity="1" stroke-miterlimit="4"></path><g clip-path="url(#6635966e63)"><g clip-path="url(#c4993cd9e3)"><g transform="matrix(1, 0, 0, 1, 0.000000000000000028, 14)"><g clip-path="url(#1cd31b126b)"><g clip-path="url(#ef967de4c7)"><g clip-path="url(#c1e1c4ca92)"><g mask="url(#b90791d1ef)"><rect x="-82.5" fill="url(#ede193e061)" width="540" height="320.759993" y="-63.004999"></rect></g></g></g></g></g></g></g><g fill="#ffffff" fill-opacity="1"><g transform="translate(58.027564, 143.940511)"><g><path d="M 38.515625 -4.8125 C 34.410156 -1.144531 29.34375 0.6875 23.3125 0.6875 C 17.28125 0.6875 12.21875 -1.15625 8.125 -4.84375 C 4.070312 -8.488281 2.046875 -13.132812 2.046875 -18.78125 C 2.046875 -24.46875 4.09375 -29.132812 8.1875 -32.78125 C 12.3125 -36.414062 17.351562 -38.234375 23.3125 -38.234375 C 29.394531 -38.234375 34.484375 -36.398438 38.578125 -32.734375 C 42.628906 -29.097656 44.65625 -24.445312 44.65625 -18.78125 C 44.65625 -13.113281 42.609375 -8.457031 38.515625 -4.8125 Z M 23.3125 -4.609375 C 26.226562 -4.609375 28.664062 -5.894531 30.625 -8.46875 C 32.46875 -10.882812 33.390625 -14.320312 33.390625 -18.78125 C 33.390625 -23.3125 32.410156 -26.804688 30.453125 -29.265625 C 28.492188 -31.722656 26.109375 -32.953125 23.296875 -32.953125 C 20.484375 -32.953125 18.078125 -31.664062 16.078125 -29.09375 C 14.234375 -26.71875 13.3125 -23.273438 13.3125 -18.765625 C 13.3125 -14.265625 14.289062 -10.773438 16.25 -8.296875 C 18.207031 -5.835938 20.5625 -4.609375 23.3125 -4.609375 Z M 23.3125 -4.609375 "></path></g></g></g><g fill="#ffffff" fill-opacity="1"><g transform="translate(102.307721, 143.940511)"><g><path d="M 14.46875 0.6875 C 9.757812 0.6875 5.390625 -0.539062 1.359375 -3 L 1.359375 -13.65625 L 1.703125 -13.65625 C 2.867188 -11.082031 4.289062 -8.988281 5.96875 -7.375 C 7.90625 -5.507812 10.304688 -4.578125 13.171875 -4.578125 C 15.429688 -4.578125 17.128906 -5.210938 18.265625 -6.484375 C 19.203125 -7.535156 19.671875 -8.773438 19.671875 -10.203125 C 19.671875 -12.078125 18.472656 -13.773438 16.078125 -15.296875 L 11.265625 -18.375 C 6.484375 -21.414062 4.09375 -24.835938 4.09375 -28.640625 C 4.09375 -31.515625 5.378906 -33.941406 7.953125 -35.921875 C 9.984375 -37.460938 12.613281 -38.234375 15.84375 -38.234375 C 19.070312 -38.234375 22.234375 -37.710938 25.328125 -36.671875 L 25.328125 -27.859375 L 24.984375 -27.859375 C 22.828125 -31.503906 20.453125 -33.328125 17.859375 -33.328125 C 16.742188 -33.328125 15.851562 -33.078125 15.1875 -32.578125 C 14.414062 -31.984375 14.03125 -31.195312 14.03125 -30.21875 C 14.03125 -28.507812 15.085938 -26.972656 17.203125 -25.609375 L 22.90625 -21.953125 C 27.507812 -19.015625 29.8125 -15.738281 29.8125 -12.125 C 29.8125 -8.269531 28.34375 -5.160156 25.40625 -2.796875 C 22.507812 -0.472656 18.863281 0.6875 14.46875 0.6875 Z M 14.46875 0.6875 "></path></g></g></g><g fill="#ffffff" fill-opacity="1"><g transform="translate(132.078635, 143.940511)"><g><path d="M 42.875 0 L 30.890625 0 C 31.171875 -0.632812 31.351562 -1.328125 31.4375 -2.078125 C 29.007812 -0.234375 25.769531 0.6875 21.71875 0.6875 C 16.207031 0.6875 11.5625 -1.085938 7.78125 -4.640625 C 3.957031 -8.234375 2.046875 -12.941406 2.046875 -18.765625 C 2.046875 -24.597656 3.957031 -29.3125 7.78125 -32.90625 C 11.5625 -36.457031 16.207031 -38.234375 21.71875 -38.234375 C 25.238281 -38.234375 28.367188 -37.367188 31.109375 -35.640625 C 31.035156 -36.054688 30.960938 -36.476562 30.890625 -36.90625 L 42.84375 -39.296875 C 42.226562 -35.835938 41.921875 -32.515625 41.921875 -29.328125 L 41.921875 -10.03125 C 41.921875 -6.757812 42.238281 -3.414062 42.875 0 Z M 24.03125 -4.546875 C 26.65625 -4.546875 28.691406 -5.648438 30.140625 -7.859375 C 31.285156 -9.535156 31.859375 -11.515625 31.859375 -13.796875 L 31.859375 -23.765625 C 31.859375 -26.171875 31.285156 -28.195312 30.140625 -29.84375 C 28.660156 -31.957031 26.625 -33.015625 24.03125 -33.015625 C 20.976562 -33.015625 18.441406 -31.707031 16.421875 -29.09375 C 14.347656 -26.425781 13.3125 -22.988281 13.3125 -18.78125 C 13.3125 -14.519531 14.347656 -11.082031 16.421875 -8.46875 C 18.492188 -5.851562 21.03125 -4.546875 24.03125 -4.546875 Z M 24.03125 -4.546875 "></path></g></g></g><g fill="#ffffff" fill-opacity="1"><g transform="translate(178.065788, 143.940511)"><g><path d="M 4.5 0 C 5.144531 -3.34375 5.46875 -6.6875 5.46875 -10.03125 L 5.46875 -26.828125 C 5.46875 -29.898438 5.144531 -33.257812 4.5 -36.90625 L 16.453125 -39.296875 C 16.066406 -37.472656 15.828125 -35.695312 15.734375 -33.96875 C 18.515625 -36.8125 22.421875 -38.234375 27.453125 -38.234375 C 33.140625 -38.234375 37.191406 -36.195312 39.609375 -32.125 C 40.992188 -29.800781 41.6875 -26.351562 41.6875 -21.78125 L 41.6875 -10.03125 C 41.6875 -6.757812 42.003906 -3.414062 42.640625 0 L 30.484375 0 C 31.117188 -3.34375 31.4375 -6.6875 31.4375 -10.03125 L 31.4375 -21.640625 C 31.4375 -25.171875 30.8125 -27.789062 29.5625 -29.5 C 28.019531 -31.570312 26.007812 -32.609375 23.53125 -32.609375 C 21.019531 -32.609375 19.015625 -31.59375 17.515625 -29.5625 C 16.191406 -27.769531 15.53125 -25.128906 15.53125 -21.640625 L 15.53125 -10.03125 C 15.53125 -6.757812 15.847656 -3.414062 16.484375 0 Z M 4.5 0 "></path></g></g></g><g fill="#ffffff" fill-opacity="1"><g transform="translate(223.81397, 143.940511)"><g><path d="M 4.5 0 C 5.144531 -3.34375 5.46875 -6.6875 5.46875 -10.03125 L 5.46875 -26.828125 C 5.46875 -29.898438 5.144531 -33.257812 4.5 -36.90625 L 16.453125 -39.296875 C 16.066406 -37.472656 15.828125 -35.695312 15.734375 -33.96875 C 18.515625 -36.8125 22.421875 -38.234375 27.453125 -38.234375 C 33.140625 -38.234375 37.191406 -36.195312 39.609375 -32.125 C 40.992188 -29.800781 41.6875 -26.351562 41.6875 -21.78125 L 41.6875 -10.03125 C 41.6875 -6.757812 42.003906 -3.414062 42.640625 0 L 30.484375 0 C 31.117188 -3.34375 31.4375 -6.6875 31.4375 -10.03125 L 31.4375 -21.640625 C 31.4375 -25.171875 30.8125 -27.789062 29.5625 -29.5 C 28.019531 -31.570312 26.007812 -32.609375 23.53125 -32.609375 C 21.019531 -32.609375 19.015625 -31.59375 17.515625 -29.5625 C 16.191406 -27.769531 15.53125 -25.128906 15.53125 -21.640625 L 15.53125 -10.03125 C 15.53125 -6.757812 15.847656 -3.414062 16.484375 0 Z M 4.5 0 "></path></g></g></g><g fill="#ffffff" fill-opacity="1"><g transform="translate(269.562141, 143.940511)"><g><path d="M 42.875 0 L 30.890625 0 C 31.171875 -0.632812 31.351562 -1.328125 31.4375 -2.078125 C 29.007812 -0.234375 25.769531 0.6875 21.71875 0.6875 C 16.207031 0.6875 11.5625 -1.085938 7.78125 -4.640625 C 3.957031 -8.234375 2.046875 -12.941406 2.046875 -18.765625 C 2.046875 -24.597656 3.957031 -29.3125 7.78125 -32.90625 C 11.5625 -36.457031 16.207031 -38.234375 21.71875 -38.234375 C 25.238281 -38.234375 28.367188 -37.367188 31.109375 -35.640625 C 31.035156 -36.054688 30.960938 -36.476562 30.890625 -36.90625 L 42.84375 -39.296875 C 42.226562 -35.835938 41.921875 -32.515625 41.921875 -29.328125 L 41.921875 -10.03125 C 41.921875 -6.757812 42.238281 -3.414062 42.875 0 Z M 24.03125 -4.546875 C 26.65625 -4.546875 28.691406 -5.648438 30.140625 -7.859375 C 31.285156 -9.535156 31.859375 -11.515625 31.859375 -13.796875 L 31.859375 -23.765625 C 31.859375 -26.171875 31.285156 -28.195312 30.140625 -29.84375 C 28.660156 -31.957031 26.625 -33.015625 24.03125 -33.015625 C 20.976562 -33.015625 18.441406 -31.707031 16.421875 -29.09375 C 14.347656 -26.425781 13.3125 -22.988281 13.3125 -18.78125 C 13.3125 -14.519531 14.347656 -11.082031 16.421875 -8.46875 C 18.492188 -5.851562 21.03125 -4.546875 24.03125 -4.546875 Z M 24.03125 -4.546875 "></path></g></g></g><g fill="#ffffff" fill-opacity="1"><g transform="translate(80.116053, 203.381315)"><g><path d="M 14.46875 0.6875 C 9.757812 0.6875 5.390625 -0.539062 1.359375 -3 L 1.359375 -13.65625 L 1.703125 -13.65625 C 2.867188 -11.082031 4.289062 -8.988281 5.96875 -7.375 C 7.90625 -5.507812 10.304688 -4.578125 13.171875 -4.578125 C 15.429688 -4.578125 17.128906 -5.210938 18.265625 -6.484375 C 19.203125 -7.535156 19.671875 -8.773438 19.671875 -10.203125 C 19.671875 -12.078125 18.472656 -13.773438 16.078125 -15.296875 L 11.265625 -18.375 C 6.484375 -21.414062 4.09375 -24.835938 4.09375 -28.640625 C 4.09375 -31.515625 5.378906 -33.941406 7.953125 -35.921875 C 9.984375 -37.460938 12.613281 -38.234375 15.84375 -38.234375 C 19.070312 -38.234375 22.234375 -37.710938 25.328125 -36.671875 L 25.328125 -27.859375 L 24.984375 -27.859375 C 22.828125 -31.503906 20.453125 -33.328125 17.859375 -33.328125 C 16.742188 -33.328125 15.851562 -33.078125 15.1875 -32.578125 C 14.414062 -31.984375 14.03125 -31.195312 14.03125 -30.21875 C 14.03125 -28.507812 15.085938 -26.972656 17.203125 -25.609375 L 22.90625 -21.953125 C 27.507812 -19.015625 29.8125 -15.738281 29.8125 -12.125 C 29.8125 -8.269531 28.34375 -5.160156 25.40625 -2.796875 C 22.507812 -0.472656 18.863281 0.6875 14.46875 0.6875 Z M 14.46875 0.6875 "></path></g></g></g><g fill="#ffffff" fill-opacity="1"><g transform="translate(108.862761, 203.381315)"><g><path d="M 9.28125 0 C 9.925781 -3.394531 10.25 -6.738281 10.25 -10.03125 L 10.25 -31.171875 L 9.90625 -31.171875 C 6.757812 -31.171875 3.570312 -30.851562 0.34375 -30.21875 L 0.34375 -37.5625 C 3.550781 -36.914062 6.738281 -36.59375 9.90625 -36.59375 L 10.25 -36.59375 L 10.25 -41.25 C 10.25 -45.1875 9.925781 -48.550781 9.28125 -51.34375 L 21.234375 -52.921875 C 20.617188 -49.390625 20.3125 -46.078125 20.3125 -42.984375 L 20.3125 -36.59375 L 20.65625 -36.59375 C 23.75 -36.59375 26.9375 -36.914062 30.21875 -37.5625 L 30.21875 -30.21875 C 26.914062 -30.851562 23.726562 -31.171875 20.65625 -31.171875 L 20.3125 -31.171875 L 20.3125 -10.03125 C 20.3125 -6.757812 20.628906 -3.414062 21.265625 0 Z M 9.28125 0 "></path></g></g></g><g fill="#ffffff" fill-opacity="1"><g transform="translate(136.994958, 203.381315)"><g><path d="M 42.640625 0 L 30.65625 0 C 31.019531 -1.15625 31.269531 -2.347656 31.40625 -3.578125 C 28.632812 -0.734375 24.734375 0.6875 19.703125 0.6875 C 13.867188 0.6875 9.835938 -1.375 7.609375 -5.5 C 6.179688 -8.132812 5.46875 -11.554688 5.46875 -15.765625 L 5.46875 -26.796875 C 5.46875 -30.035156 5.144531 -33.40625 4.5 -36.90625 L 16.625 -39.296875 C 16.007812 -35.835938 15.703125 -32.515625 15.703125 -29.328125 L 15.703125 -15.90625 C 15.703125 -12.351562 16.328125 -9.738281 17.578125 -8.0625 C 19.128906 -5.988281 21.144531 -4.953125 23.625 -4.953125 C 26.125 -4.953125 28.128906 -5.960938 29.640625 -7.984375 C 30.953125 -9.785156 31.609375 -12.425781 31.609375 -15.90625 L 31.609375 -26.796875 C 31.609375 -30.035156 31.289062 -33.40625 30.65625 -36.90625 L 42.609375 -39.296875 C 41.992188 -35.816406 41.6875 -32.492188 41.6875 -29.328125 L 41.6875 -10.03125 C 41.6875 -6.757812 42.003906 -3.414062 42.640625 0 Z M 42.640625 0 "></path></g></g></g><g fill="#ffffff" fill-opacity="1"><g transform="translate(182.74314, 203.381315)"><g><path d="M 42.875 0 C 42.875 0 38.878906 0 30.890625 0 C 31.171875 -0.632812 31.351562 -1.328125 31.4375 -2.078125 C 29.007812 -0.234375 25.769531 0.6875 21.71875 0.6875 C 16.207031 0.6875 11.5625 -1.085938 7.78125 -4.640625 C 3.957031 -8.234375 2.046875 -12.941406 2.046875 -18.765625 C 2.046875 -24.597656 3.957031 -29.3125 7.78125 -32.90625 C 11.5625 -36.457031 16.207031 -38.234375 21.71875 -38.234375 C 25.832031 -38.234375 29.210938 -37.289062 31.859375 -35.40625 L 31.859375 -40.796875 C 31.859375 -44.328125 31.535156 -47.695312 30.890625 -50.90625 L 42.84375 -53.296875 C 42.226562 -50.316406 41.921875 -46.992188 41.921875 -43.328125 L 41.921875 -10.03125 C 41.921875 -6.757812 42.238281 -3.414062 42.875 0 Z M 24.03125 -4.546875 C 26.65625 -4.546875 28.691406 -5.648438 30.140625 -7.859375 C 31.285156 -9.535156 31.859375 -11.515625 31.859375 -13.796875 L 31.859375 -23.765625 C 31.859375 -26.171875 31.285156 -28.195312 30.140625 -29.84375 C 28.660156 -31.957031 26.625 -33.015625 24.03125 -33.015625 C 20.976562 -33.015625 18.441406 -31.707031 16.421875 -29.09375 C 14.347656 -26.425781 13.3125 -22.988281 13.3125 -18.78125 C 13.3125 -14.519531 14.347656 -11.082031 16.421875 -8.46875 C 18.492188 -5.851562 21.03125 -4.546875 24.03125 -4.546875 Z M 24.03125 -4.546875 "></path></g></g></g><g fill="#ffffff" fill-opacity="1"><g transform="translate(228.730293, 203.381315)"><g><path d="M 6 -52.34375 C 7.207031 -53.570312 8.675781 -54.1875 10.40625 -54.1875 C 12.144531 -54.1875 13.613281 -53.570312 14.8125 -52.34375 C 16.019531 -51.113281 16.625 -49.617188 16.625 -47.859375 C 16.625 -46.109375 16.019531 -44.617188 14.8125 -43.390625 C 13.613281 -42.160156 12.144531 -41.546875 10.40625 -41.546875 C 8.675781 -41.546875 7.207031 -42.160156 6 -43.390625 C 4.800781 -44.617188 4.203125 -46.109375 4.203125 -47.859375 C 4.203125 -49.617188 4.800781 -51.113281 6 -52.34375 Z M 4.5 0 C 5.144531 -3.34375 5.46875 -6.6875 5.46875 -10.03125 L 5.46875 -26.796875 C 5.46875 -30.035156 5.144531 -33.40625 4.5 -36.90625 L 16.453125 -39.296875 C 15.835938 -35.835938 15.53125 -32.515625 15.53125 -29.328125 L 15.53125 -10.03125 C 15.53125 -6.757812 15.847656 -3.414062 16.484375 0 Z M 4.5 0 "></path></g></g></g><g fill="#ffffff" fill-opacity="1"><g transform="translate(248.156944, 203.381315)"><g><path d="M 38.515625 -4.8125 C 34.410156 -1.144531 29.34375 0.6875 23.3125 0.6875 C 17.28125 0.6875 12.21875 -1.15625 8.125 -4.84375 C 4.070312 -8.488281 2.046875 -13.132812 2.046875 -18.78125 C 2.046875 -24.46875 4.09375 -29.132812 8.1875 -32.78125 C 12.3125 -36.414062 17.351562 -38.234375 23.3125 -38.234375 C 29.394531 -38.234375 34.484375 -36.398438 38.578125 -32.734375 C 42.628906 -29.097656 44.65625 -24.445312 44.65625 -18.78125 C 44.65625 -13.113281 42.609375 -8.457031 38.515625 -4.8125 Z M 23.3125 -4.609375 C 26.226562 -4.609375 28.664062 -5.894531 30.625 -8.46875 C 32.46875 -10.882812 33.390625 -14.320312 33.390625 -18.78125 C 33.390625 -23.3125 32.410156 -26.804688 30.453125 -29.265625 C 28.492188 -31.722656 26.109375 -32.953125 23.296875 -32.953125 C 20.484375 -32.953125 18.078125 -31.664062 16.078125 -29.09375 C 14.234375 -26.71875 13.3125 -23.273438 13.3125 -18.765625 C 13.3125 -14.265625 14.289062 -10.773438 16.25 -8.296875 C 18.207031 -5.835938 20.5625 -4.609375 23.3125 -4.609375 Z M 23.3125 -4.609375 "></path></g></g></g></svg>