<svg xmlns="http://www.w3.org/2000/svg" xmlns:xlink="http://www.w3.org/1999/xlink" width="1091px" height="461px" viewBox="0 0 1091.3354579514762 460.7173688630173">
    
        <g id="c3c5b4d8-39fc-4ee3-85cc-f6d32a76ebb2" name="New Group">
          
        <g id="00eb9741-4785-46e6-8665-bf39f8c8fecf" name="New Group">
          
        <g id="6a0ab5c3-d4ba-4e89-982e-365cc817708c" name="New Group">
          <g id="8572952c-b051-4347-a66d-d259aba0b8c1">
<g style="">
&#x9;&#x9;<g id="8572952c-b051-4347-a66d-d259aba0b8c1-child-0">
<path style="stroke: rgb(193,193,193); stroke-opacity: 1.00; stroke-width: 0; stroke-dasharray: none; stroke-linecap: butt; stroke-dashoffset: 0; stroke-linejoin: miter; stroke-miterlimit: 4; fill: rgb(42,26,38); fill-opacity: 1.00; fill-rule: nonzero; opacity: 1;" transform="matrix(0.339574 0 0 0.339481 172.898555 245.066271) matrix(1 0 0 1 0 0)  translate(-509.283029, -514.73216)" d="M 463.00 1028.51 C 429.78 1024.71 403.16 1019.93 376.44 1012.98 C 284.19 988.98 203.69 942.04 136.95 873.33 C 86.91 821.83 50.12 761.15 25.99 690.37 C 15.86 660.65 7.36 624.25 6.29 605.96 C 5.76 596.94 5.86 596.27 8.12 593.65 C 11.15 590.12 17.77 588.97 21.39 591.33 C 24.54 593.40 26.19 598.59 30.51 620.00 C 39.71 665.69 51.93 702.21 70.88 740.62 C 112.66 825.35 178.14 894.00 263.97 943.08 C 317.66 973.78 376.22 993.63 440.50 1002.92 C 473.59 1007.70 539.60 1008.28 571.00 1004.07 C 628.24 996.40 676.58 982.24 724.53 959.09 C 764.84 939.63 805.80 912.51 834.50 886.29 C 853.67 868.77 885.70 835.42 895.81 822.44 C 942.37 762.71 975.63 689.12 988.89 616.50 C 993.63 590.50 995.98 567.81 995.99 547.75 L 996.00 535.00 L 942.65 535.00 C 893.10 535.00 889.20 534.88 887.78 533.25 C 884.19 529.13 883.88 526.79 882.97 496.71 C 881.52 448.34 876.54 415.42 865.47 380.98 C 855.05 348.54 842.09 321.92 822.90 293.50 C 810.93 275.76 802.94 266.03 786.50 249.12 C 761.13 223.03 737.46 203.57 714.20 189.70 C 664.42 159.99 612.52 141.81 559.00 135.33 C 541.02 133.15 480.45 132.80 464.50 134.78 C 427.35 139.39 390.35 149.05 361.00 161.80 C 343.15 169.56 313.01 185.18 302.11 192.32 C 278.64 207.71 258.64 224.39 236.99 246.61 C 219.54 264.52 209.80 276.51 196.49 296.48 C 168.07 339.12 147.72 394.27 141.49 445.62 C 140.63 452.70 139.69 459.29 139.39 460.26 C 138.41 463.49 133.98 467.85 130.99 468.50 C 127.35 469.30 120.72 465.88 119.13 462.38 C 117.01 457.74 120.87 429.49 127.64 400.00 C 139.66 347.61 164.11 297.74 199.70 253.00 C 208.22 242.28 234.66 215.21 246.50 205.07 C 269.37 185.49 298.13 166.48 325.99 152.51 C 366.03 132.43 418.31 116.80 461.34 112.06 C 487.72 109.15 545.17 109.92 568.94 113.50 C 633.28 123.19 695.65 147.80 745.99 183.38 C 779.40 206.99 810.72 237.93 834.16 270.50 C 865.14 313.52 886.25 361.55 896.87 413.17 C 902.42 440.15 905.00 466.33 905.00 495.65 L 905.00 514.00 L 959.42 514.00 L 1013.84 514.00 L 1016.17 517.75 C 1018.44 521.40 1018.50 522.11 1018.43 544.00 C 1018.21 617.81 995.53 702.00 957.69 769.50 C 894.98 881.34 791.45 966.44 670.00 1005.96 C 636.43 1016.89 593.31 1025.63 561.03 1028.05 C 537.62 1029.80 476.82 1030.09 463.00 1028.51 Z M 459.00 899.39 C 393.00 890.55 335.73 869.00 282.55 832.98 C 192.08 771.70 132.14 673.01 120.59 566.33 C 119.77 558.72 118.81 548.58 118.46 543.78 L 117.83 535.06 L 61.44 534.78 L 5.05 534.50 L 2.78 532.22 C 0.61 530.06 0.48 529.10 0.18 512.72 C -0.23 490.80 1.52 448.50 3.55 431.00 C 5.33 415.76 10.85 385.50 14.60 370.50 C 30.85 305.48 64.17 237.43 104.69 186.50 C 114.13 174.63 153.94 134.08 168.36 121.66 C 211.42 84.54 267.57 52.11 324.35 31.56 C 418.63 -2.54 528.81 -9.42 628.50 12.59 C 813.26 53.38 954.41 184.63 1001.98 359.87 C 1009.87 388.93 1016.96 431.28 1017.33 451.54 C 1017.52 461.42 1016.16 465.06 1011.52 467.17 C 1008.36 468.61 1002.62 467.44 999.44 464.70 C 997.16 462.75 996.71 461.17 995.43 451.00 C 991.68 420.99 989.65 407.37 986.94 394.03 C 964.87 285.44 904.61 189.79 816.39 123.31 C 750.40 73.58 675.44 42.29 589.50 28.60 C 564.53 24.62 554.26 24.00 513.00 24.01 C 460.50 24.02 445.97 25.21 408.50 32.59 C 309.97 51.97 222.73 97.92 154.45 166.40 C 119.51 201.45 93.58 237.83 70.49 284.22 C 45.40 334.60 29.81 389.19 24.56 445.00 C 22.95 462.18 20.82 511.90 21.64 513.23 C 21.91 513.66 47.40 514.00 78.31 514.01 L 134.50 514.01 L 136.95 517.61 C 139.14 520.83 139.48 522.70 140.18 535.35 C 142.27 573.58 148.99 609.45 159.45 638.32 C 175.49 682.57 202.18 726.77 231.98 758.44 C 265.95 794.54 301.36 821.21 341.50 840.93 C 431.40 885.09 538.73 892.03 634.39 859.86 C 729.83 827.76 811.80 753.15 852.32 661.50 C 859.91 644.33 863.86 632.69 869.53 610.73 C 872.54 599.06 875.54 588.20 876.18 586.62 C 876.96 584.70 878.82 583.08 881.72 581.80 C 885.95 579.93 886.18 579.92 889.78 581.69 C 897.17 585.31 897.48 590.83 891.60 614.50 C 881.19 656.40 861.45 698.92 834.58 737.35 C 808.40 774.80 771.27 810.77 731.00 837.69 C 678.65 872.68 612.39 895.61 551.00 899.95 C 529.66 901.46 471.85 901.11 459.00 899.39 Z" stroke-linecap="round"></path>
</g>
</g>
</g>

<g id="b33817c4-5af7-4866-a384-696050f82a54">
<g style="">
&#x9;&#x9;<g id="b33817c4-5af7-4866-a384-696050f82a54-child-0">
<path style="stroke: rgb(193,193,193); stroke-opacity: 1.00; stroke-width: 0; stroke-dasharray: none; stroke-linecap: butt; stroke-dashoffset: 0; stroke-linejoin: miter; stroke-miterlimit: 4; fill: rgb(42,26,38); fill-opacity: 1.00; fill-rule: evenodd; opacity: 1;" transform="matrix(1.252702 0 0 1.252702 172.973409 245.144739) matrix(1 0 0 1 0 -56.9)  translate(-113.4, -56.5)" d="M 113.40 86.90 C 113.00 77.60 108.20 75.00 99.80 69.20 C 93.50 64.90 92.40 58.80 92.30 56.10 L 92.30 54.70 L 92.30 30.90 C 92.70 40.20 97.50 42.80 105.90 48.60 C 112.20 52.90 113.30 59.00 113.40 61.70 C 113.60 59.00 114.60 52.90 120.90 48.60 C 129.30 42.80 134.10 40.20 134.50 30.90 L 134.50 54.70 L 134.50 56.10 C 134.30 58.80 133.30 64.90 127.00 69.20 C 118.60 74.90 113.80 77.50 113.40 86.90 z M 103.60 35.90 L 113.40 45.70 L 123.20 35.90 L 113.40 26.10 z" stroke-linecap="round"></path>
</g>
&#x9;&#x9;<g id="b33817c4-5af7-4866-a384-696050f82a54-child-1">
<path style="stroke: rgb(193,193,193); stroke-opacity: 1.00; stroke-width: 0; stroke-dasharray: none; stroke-linecap: butt; stroke-dashoffset: 0; stroke-linejoin: miter; stroke-miterlimit: 4; fill: rgb(42,26,38); fill-opacity: 1.00; fill-rule: evenodd; opacity: 1;" transform="matrix(1.252702 0 0 1.252702 172.973409 245.144739) matrix(1 0 0 1 0 56.9)  translate(-113.4, -170.3)" d="M 113.40 139.90 C 113.00 149.20 108.20 151.80 99.80 157.60 C 93.50 161.90 92.40 168.00 92.30 170.70 L 92.30 172.10 L 92.30 195.90 C 92.70 186.60 97.50 184.00 105.90 178.20 C 112.20 173.90 113.30 167.80 113.40 165.10 C 113.60 167.80 114.60 173.90 120.90 178.20 C 129.30 184.00 134.10 186.60 134.50 195.90 L 134.50 172.10 L 134.50 170.70 C 134.30 168.00 133.30 161.90 127.00 157.60 C 118.60 151.80 113.80 149.20 113.40 139.90 z M 103.60 190.90 L 113.40 181.10 L 123.20 190.90 L 113.40 200.70 z" stroke-linecap="round"></path>
</g>
&#x9;&#x9;<g id="b33817c4-5af7-4866-a384-696050f82a54-child-2">
<path style="stroke: rgb(193,193,193); stroke-opacity: 1.00; stroke-width: 0; stroke-dasharray: none; stroke-linecap: butt; stroke-dashoffset: 0; stroke-linejoin: miter; stroke-miterlimit: 4; fill: rgb(42,26,38); fill-opacity: 1.00; fill-rule: evenodd; opacity: 1;" transform="matrix(1.252702 0 0 1.252702 172.973409 245.144739) matrix(1 0 0 1 -46.05 -46.05)  translate(-67.35, -67.35)" d="M 94.60 94.60 C 87.70 88.30 82.50 89.90 72.50 91.70 C 65.00 93.10 60.00 89.60 57.90 87.80 L 56.90 86.80 L 40.10 70.00 C 47.00 76.30 52.20 74.70 62.20 72.90 C 69.70 71.50 74.80 75.00 76.80 76.80 C 75.00 74.80 71.50 69.70 72.90 62.20 C 74.70 52.20 76.30 47.00 70.00 40.10 L 86.80 56.90 L 87.80 57.90 C 89.60 59.90 93.10 65.00 91.70 72.50 C 89.90 82.50 88.30 87.70 94.60 94.60 z M 51.70 65.60 L 65.60 65.60 L 65.60 51.70 L 51.70 51.70 z" stroke-linecap="round"></path>
</g>
&#x9;&#x9;<g id="b33817c4-5af7-4866-a384-696050f82a54-child-3">
<path style="stroke: rgb(193,193,193); stroke-opacity: 1.00; stroke-width: 0; stroke-dasharray: none; stroke-linecap: butt; stroke-dashoffset: 0; stroke-linejoin: miter; stroke-miterlimit: 4; fill: rgb(42,26,38); fill-opacity: 1.00; fill-rule: evenodd; opacity: 1;" transform="matrix(1.252702 0 0 1.252702 172.973409 245.144739) matrix(1 0 0 1 45.95 45.95)  translate(-159.35, -159.35)" d="M 132.10 132.10 C 138.40 139.00 136.80 144.20 135.00 154.20 C 133.60 161.70 137.10 166.80 138.90 168.80 L 139.90 169.80 L 156.70 186.60 C 150.40 179.70 152.00 174.50 153.80 164.50 C 155.20 157.00 151.70 151.90 149.90 149.90 C 151.90 151.70 157.00 155.20 164.50 153.80 C 174.50 152.00 179.70 150.40 186.60 156.70 L 169.80 140.00 L 168.80 139.00 C 166.80 137.20 161.70 133.70 154.20 135.10 C 144.30 136.90 139.00 138.40 132.10 132.10 z M 161.20 175.10 L 161.20 161.20 L 175.10 161.20 L 175.10 175.10 z" stroke-linecap="round"></path>
</g>
&#x9;&#x9;<g id="b33817c4-5af7-4866-a384-696050f82a54-child-4">
<path style="stroke: rgb(193,193,193); stroke-opacity: 1.00; stroke-width: 0; stroke-dasharray: none; stroke-linecap: butt; stroke-dashoffset: 0; stroke-linejoin: miter; stroke-miterlimit: 4; fill: rgb(42,26,38); fill-opacity: 1.00; fill-rule: evenodd; opacity: 1;" transform="matrix(1.252702 0 0 1.252702 172.973409 245.144739) matrix(1 0 0 1 46 -46.05)  translate(-159.4, -67.35)" d="M 132.10 94.60 C 139.00 88.30 144.20 89.90 154.20 91.70 C 161.70 93.10 166.80 89.60 168.80 87.80 L 169.80 86.80 L 186.70 70.00 C 179.80 76.30 174.60 74.70 164.60 72.90 C 157.00 71.50 152.00 75.00 150.00 76.80 C 151.80 74.80 155.30 69.70 153.90 62.20 C 152.10 52.20 150.50 47.00 156.80 40.10 L 140.00 56.90 L 139.00 57.90 C 137.20 59.90 133.70 65.00 135.10 72.50 C 136.90 82.50 138.40 87.70 132.10 94.60 z M 175.10 65.60 L 161.20 65.60 L 161.20 51.70 L 175.10 51.70 z" stroke-linecap="round"></path>
</g>
&#x9;&#x9;<g id="b33817c4-5af7-4866-a384-696050f82a54-child-5">
<path style="stroke: rgb(193,193,193); stroke-opacity: 1.00; stroke-width: 0; stroke-dasharray: none; stroke-linecap: butt; stroke-dashoffset: 0; stroke-linejoin: miter; stroke-miterlimit: 4; fill: rgb(42,26,38); fill-opacity: 1.00; fill-rule: evenodd; opacity: 1;" transform="matrix(1.252702 0 0 1.252702 172.973409 245.144739) matrix(1 0 0 1 -46.05 46)  translate(-67.35, -159.4)" d="M 94.60 132.10 C 88.30 139.00 89.90 144.20 91.70 154.20 C 93.10 161.70 89.60 166.80 87.80 168.80 L 86.80 169.80 L 70.00 186.70 C 76.30 179.80 74.70 174.60 72.90 164.60 C 71.50 157.00 75.00 152.00 76.80 150.00 C 74.80 151.80 69.70 155.30 62.20 153.90 C 52.20 152.10 47.00 150.50 40.10 156.80 L 56.90 140.00 L 57.90 139.00 C 59.90 137.20 65.00 133.70 72.50 135.10 C 82.50 136.90 87.70 138.40 94.60 132.10 z M 65.60 175.10 L 65.60 161.20 L 51.70 161.20 L 51.70 175.10 z" stroke-linecap="round"></path>
</g>
&#x9;&#x9;<g id="b33817c4-5af7-4866-a384-696050f82a54-child-6">
<path style="stroke: rgb(193,193,193); stroke-opacity: 1.00; stroke-width: 0; stroke-dasharray: none; stroke-linecap: butt; stroke-dashoffset: 0; stroke-linejoin: miter; stroke-miterlimit: 4; fill: rgb(42,26,38); fill-opacity: 1.00; fill-rule: evenodd; opacity: 1;" transform="matrix(1.252702 0 0 1.252702 172.973409 245.144739) matrix(1 0 0 1 56.9 0)  translate(-170.3, -113.4)" d="M 139.90 113.40 C 149.20 113.80 151.80 118.60 157.60 127.00 C 161.90 133.30 168.00 134.40 170.70 134.50 L 172.10 134.50 L 195.90 134.50 C 186.60 134.10 184.00 129.30 178.20 120.90 C 173.90 114.60 167.80 113.50 165.10 113.40 C 167.80 113.20 173.90 112.20 178.20 105.90 C 184.00 97.50 186.60 92.70 195.90 92.30 L 172.10 92.30 L 170.70 92.30 C 168.00 92.50 161.90 93.50 157.60 99.80 C 151.80 108.20 149.20 113.00 139.90 113.40 z M 190.90 123.20 L 181.10 113.40 L 190.90 103.60 L 200.70 113.40 z" stroke-linecap="round"></path>
</g>
&#x9;&#x9;<g id="b33817c4-5af7-4866-a384-696050f82a54-child-7">
<path style="stroke: rgb(193,193,193); stroke-opacity: 1.00; stroke-width: 0; stroke-dasharray: none; stroke-linecap: butt; stroke-dashoffset: 0; stroke-linejoin: miter; stroke-miterlimit: 4; fill: rgb(42,26,38); fill-opacity: 1.00; fill-rule: evenodd; opacity: 1;" transform="matrix(1.252702 0 0 1.252702 172.973409 245.144739) matrix(1 0 0 1 -56.9 0)  translate(-56.5, -113.4)" d="M 86.90 113.40 C 77.60 113.80 75.00 118.60 69.20 127.00 C 64.90 133.30 58.80 134.40 56.10 134.50 L 54.70 134.50 L 30.90 134.50 C 40.20 134.10 42.80 129.30 48.60 120.90 C 52.90 114.60 59.00 113.50 61.70 113.40 C 59.00 113.20 52.90 112.20 48.60 105.90 C 42.80 97.50 40.20 92.70 30.90 92.30 L 54.70 92.30 L 56.10 92.30 C 58.80 92.50 64.90 93.50 69.20 99.80 C 74.90 108.20 77.50 113.00 86.90 113.40 z M 35.90 123.20 L 45.70 113.40 L 35.90 103.60 L 26.10 113.40 z" stroke-linecap="round"></path>
</g>
</g>
</g>

        </g>
      
<g id="55c679de-d8da-44ee-90c5-ac73a45081c7"><path style="fill: rgb(42,26,38); fill-opacity: 1.00;  stroke: rgb(193,193,193); stroke-opacity: 1.00;  stroke-linecap: butt; stroke-linejoin: miter; stroke-miterlimit: 10; stroke-width: 0;  stroke-dashoffset: 0;  fill-rule: nonzero;" d="M 173.01364970730475 257.4777421890717 L 160.64007281179826 245.18497654737828 L 172.93283845349168 232.81139965187185 L 185.30641534899817 245.10416529356527 L 173.01364970730475 257.4777421890717 Z"></path></g>
        </g>
      
<g style="" id="cd381484-fb70-47d5-9c1a-322f218dff24">
<g style=""><path d="M-90.56645 -6.82255Q-96.83045 -6.82255 -100.86245 -11.03455Q-104.89445 -15.24655 -104.89445 -22.08655Q-104.89445 -28.92655 -100.75445 -35.01055Q-96.61445 -41.09455 -89.84645 -42.82255Q-83.15045 -42.82255 -79.69445 -38.93455Q-76.23845 -35.04655 -76.23845 -28.20655Q-76.23845 -21.36655 -80.27045 -15.31855Q-84.30245 -9.27055 -90.56645 -6.82255ZM-91.79045 -38.35855Q-94.81445 -38.35855 -96.75845 -36.63055Q-99.13445 -32.09455 -99.13445 -26.19055Q-99.13445 -20.28655 -96.47045 -15.78655Q-93.80645 -11.28655 -89.34245 -11.28655Q-86.31845 -11.28655 -84.30245 -13.08655Q-81.99845 -17.47855 -81.99845 -23.77855Q-81.99845 -30.07855 -84.41045 -34.21855Q-86.82245 -38.35855 -91.79045 -38.35855Z" fill="rgb(42,26,38)" fill-opacity="1.00" transform="matrix(3.235346 0 0 3.235346 741.483088 245.066827) translate(0 -4.546080111327399)"></path><path d="M-66.30245 -15.82255L-66.15845 -12.79855L-66.15845 -12.51055Q-62.84645 -11.28655 -59.89445 -11.28655Q-56.94245 -11.28655 -54.96245 -12.58255Q-52.98245 -13.87855 -52.98245 -16.90255Q-52.98245 -19.13455 -60.54245 -23.02255Q-63.35045 -24.46255 -65.72645 -26.51455Q-68.10245 -28.56655 -68.10245 -30.51055Q-68.10245 -34.32655 -64.03445 -38.17855Q-59.96645 -42.03055 -56.36645 -42.82255Q-51.75845 -42.82255 -47.43845 -41.67055L-47.43845 -40.66255Q-50.24645 -37.20655 -50.53445 -33.10255L-52.11845 -33.10255Q-52.11845 -35.91055 -52.26245 -37.49455Q-55.07045 -38.35855 -57.59045 -38.35855Q-60.11045 -38.35855 -62.09045 -37.38655Q-64.07045 -36.41455 -64.07045 -34.25455Q-64.07045 -32.95855 -61.69445 -31.23055Q-59.31845 -29.50255 -56.51045 -28.09855Q-53.70245 -26.69455 -51.32645 -24.60655Q-48.95045 -22.51855 -48.95045 -20.57455Q-48.95045 -16.18255 -52.94645 -12.11455Q-56.94245 -8.04655 -61.04645 -6.82255Q-66.23045 -6.82255 -70.98245 -8.33455L-70.98245 -9.34255Q-68.17445 -12.79855 -67.88645 -16.90255L-66.30245 -16.90255Q-66.30245 -16.90255 -66.30245 -15.82255Z" fill="rgb(42,26,38)" fill-opacity="1.00" transform="matrix(3.235346 0 0 3.235346 741.483088 245.066827) translate(0 -4.546080111327399)"></path><path d="M-41.24645 -20.57455Q-41.24645 -28.06255 -37.21445 -34.29055Q-33.18245 -40.51855 -26.41445 -42.82255Q-21.59045 -42.82255 -16.33445 -41.31055Q-15.32645 -42.82255 -14.67845 -45.12655L-13.16645 -44.69455Q-14.75045 -38.21455 -14.75045 -21.79855Q-14.75045 -14.45455 -14.24645 -10.27855Q-12.51845 -9.70255 -10.35845 -9.70255L-10.35845 -8.19055Q-14.96645 -7.97455 -20.07845 -6.82255L-20.58245 -7.11055Q-19.79045 -12.07855 -19.79045 -18.34255L-20.07845 -18.41455Q-22.59845 -14.81455 -26.05445 -11.43055Q-29.51045 -8.04655 -32.60645 -6.82255Q-36.56645 -6.82255 -38.90645 -11.21455Q-41.24645 -15.60655 -41.24645 -20.57455ZM-35.48645 -23.81455Q-35.48645 -20.28655 -34.22645 -16.50655Q-32.96645 -12.72655 -30.59045 -12.72655Q-28.07045 -12.72655 -24.47045 -16.32655Q-20.87045 -19.92655 -19.79045 -22.80655Q-19.79045 -33.53455 -20.29445 -36.63055Q-24.11045 -38.35855 -27.67445 -38.35855Q-31.23845 -38.35855 -33.11045 -36.63055Q-35.48645 -31.15855 -35.48645 -23.81455Z" fill="rgb(42,26,38)" fill-opacity="1.00" transform="matrix(3.235346 0 0 3.235346 741.483088 245.066827) translate(0 -4.546080111327399)"></path><path d="M19.88155 -28.85455Q19.88155 -36.91855 16.56955 -36.91855Q13.76155 -36.91855 9.94555 -33.39055Q6.12955 -29.86255 4.83355 -26.83855Q4.83355 -16.39855 5.62555 -10.06255Q7.56955 -9.63055 10.16155 -8.69455L10.01755 -7.32655Q5.98555 -7.90255 2.38555 -7.90255Q-1.21445 -7.90255 -4.88645 -7.47055L-5.10245 -8.83855Q-2.94245 -9.77455 -0.85445 -10.27855Q-0.20645 -15.17455 -0.20645 -21.58255L-0.20645 -27.63055Q-0.20645 -34.25455 -0.71045 -39.36655Q-2.43845 -39.94255 -4.59845 -39.94255L-4.59845 -41.45455Q0.00955 -41.67055 5.12155 -42.82255L5.62555 -42.53455Q4.83355 -37.56655 4.83355 -31.30255L5.12155 -31.23055Q7.56955 -34.61455 11.49355 -38.17855Q15.41755 -41.74255 18.58555 -42.82255Q22.97755 -42.82255 24.27355 -38.86255Q25.13755 -36.05455 25.13755 -31.95055Q25.13755 -31.30255 25.13755 -30.51055L24.77755 -10.27855Q26.86555 -9.77455 29.02555 -8.83855L28.80955 -7.47055Q25.35355 -7.90255 22.94155 -7.90255Q20.52955 -7.90255 18.36955 -7.75855L18.36955 -8.76655Q19.52155 -14.38255 19.80955 -27.27055Q19.88155 -27.99055 19.88155 -28.85455Z" fill="rgb(42,26,38)" fill-opacity="1.00" transform="matrix(3.235346 0 0 3.235346 741.483088 245.066827) translate(0 -4.546080111327399)"></path><path d="M59.26555 -28.85455Q59.26555 -36.91855 55.95355 -36.91855Q53.14555 -36.91855 49.32955 -33.39055Q45.51355 -29.86255 44.21755 -26.83855Q44.21755 -16.39855 45.00955 -10.06255Q46.95355 -9.63055 49.54555 -8.69455L49.40155 -7.32655Q45.36955 -7.90255 41.76955 -7.90255Q38.16955 -7.90255 34.49755 -7.47055L34.28155 -8.83855Q36.44155 -9.77455 38.52955 -10.27855Q39.17755 -15.17455 39.17755 -21.58255L39.17755 -27.63055Q39.17755 -34.25455 38.67355 -39.36655Q36.94555 -39.94255 34.78555 -39.94255L34.78555 -41.45455Q39.39355 -41.67055 44.50555 -42.82255L45.00955 -42.53455Q44.21755 -37.56655 44.21755 -31.30255L44.50555 -31.23055Q46.95355 -34.61455 50.87755 -38.17855Q54.80155 -41.74255 57.96955 -42.82255Q62.36155 -42.82255 63.65755 -38.86255Q64.52155 -36.05455 64.52155 -31.95055Q64.52155 -31.30255 64.52155 -30.51055L64.16155 -10.27855Q66.24955 -9.77455 68.40955 -8.83855L68.19355 -7.47055Q64.73755 -7.90255 62.32555 -7.90255Q59.91355 -7.90255 57.75355 -7.75855L57.75355 -8.76655Q58.90555 -14.38255 59.19355 -27.27055Q59.26555 -27.99055 59.26555 -28.85455Z" fill="rgb(42,26,38)" fill-opacity="1.00" transform="matrix(3.235346 0 0 3.235346 741.483088 245.066827) translate(0 -4.546080111327399)"></path><path d="M74.52955 -20.57455Q74.52955 -28.06255 78.56155 -34.29055Q82.59355 -40.51855 89.36155 -42.82255Q94.18555 -42.82255 99.44155 -41.31055Q100.44955 -42.82255 101.09755 -45.12655L102.60955 -44.69455Q101.02555 -38.21455 101.02555 -21.79855Q101.02555 -14.45455 101.52955 -10.27855Q103.25755 -9.70255 105.41755 -9.70255L105.41755 -8.19055Q100.80955 -7.97455 95.69755 -6.82255L95.19355 -7.11055Q95.98555 -12.07855 95.98555 -18.34255L95.69755 -18.41455Q93.17755 -14.81455 89.72155 -11.43055Q86.26555 -8.04655 83.16955 -6.82255Q79.20955 -6.82255 76.86955 -11.21455Q74.52955 -15.60655 74.52955 -20.57455ZM80.28955 -23.81455Q80.28955 -20.28655 81.54955 -16.50655Q82.80955 -12.72655 85.18555 -12.72655Q87.70555 -12.72655 91.30555 -16.32655Q94.90555 -19.92655 95.98555 -22.80655Q95.98555 -33.53455 95.48155 -36.63055Q91.66555 -38.35855 88.10155 -38.35855Q84.53755 -38.35855 82.66555 -36.63055Q80.28955 -31.15855 80.28955 -23.81455Z" fill="rgb(42,26,38)" fill-opacity="1.00" transform="matrix(3.235346 0 0 3.235346 741.483088 245.066827) translate(0 -4.546080111327399)"></path><path d="M-101.43845 45.21871L-101.29445 48.24271L-101.29445 48.53071Q-97.98245 49.75471 -95.03045 49.75471Q-92.07845 49.75471 -90.09845 48.45871Q-88.11845 47.16271 -88.11845 44.13871Q-88.11845 41.90671 -95.67845 38.01871Q-98.48645 36.57871 -100.86245 34.52671Q-103.23845 32.47471 -103.23845 30.53071Q-103.23845 26.71471 -99.17045 22.86271Q-95.10245 19.01071 -91.50245 18.21871Q-86.89445 18.21871 -82.57445 19.37071L-82.57445 20.37871Q-85.38245 23.83471 -85.67045 27.93871L-87.25445 27.93871Q-87.25445 25.13071 -87.39845 23.54671Q-90.20645 22.68271 -92.72645 22.68271Q-95.24645 22.68271 -97.22645 23.65471Q-99.20645 24.62671 -99.20645 26.78671Q-99.20645 28.08271 -96.83045 29.81071Q-94.45445 31.53871 -91.64645 32.94271Q-88.83845 34.34671 -86.46245 36.43471Q-84.08645 38.52271 -84.08645 40.46671Q-84.08645 44.85871 -88.08245 48.92671Q-92.07845 52.99471 -96.18245 54.21871Q-101.36645 54.21871 -106.11845 52.70671L-106.11845 51.69871Q-103.31045 48.24271 -103.02245 44.13871L-101.43845 44.13871Q-101.43845 44.13871 -101.43845 45.21871Z" fill="rgb(42,26,38)" fill-opacity="1.00" transform="matrix(3.235346 0 0 3.235346 741.483088 245.066827) translate(0 -4.546080111327399)"></path><path d="M-61.98245 39.09871Q-61.98245 49.03471 -59.82245 49.03471Q-55.86245 49.03471 -51.61445 45.21871L-50.89445 45.93871Q-55.07045 51.77071 -61.04645 54.21871Q-65.15045 54.21871 -66.30245 50.47471Q-67.31045 47.30671 -67.31045 39.53071Q-67.31045 38.16271 -67.31045 36.57871L-67.02245 22.25071L-70.91045 22.25071L-71.05445 22.10671Q-71.05445 20.95471 -70.83845 20.52271Q-64.79045 16.56271 -62.91845 12.31471Q-62.05445 12.09871 -60.90245 12.09871L-60.61445 12.24271Q-61.33445 16.56271 -61.47845 19.22671L-51.39845 18.86671L-51.11045 19.15471Q-51.61445 20.45071 -52.04645 22.53871Q-55.71845 22.32271 -61.69445 22.32271L-61.98245 36.57871Q-61.98245 37.87471 -61.98245 39.09871Z" fill="rgb(42,26,38)" fill-opacity="1.00" transform="matrix(3.235346 0 0 3.235346 741.483088 245.066827) translate(0 -4.546080111327399)"></path><path d="M-32.39045 40.25071Q-32.39045 48.31471 -29.07845 48.31471Q-26.27045 48.31471 -22.45445 44.78671Q-18.63845 41.25871 -17.34245 38.23471Q-17.34245 27.79471 -18.13445 21.45871Q-20.07845 21.02671 -22.67045 20.09071L-22.52645 18.72271Q-18.49445 19.29871 -14.89445 19.29871Q-11.29445 19.29871 -7.62245 18.86671L-7.40645 20.23471Q-9.56645 21.17071 -11.65445 21.67471Q-12.30245 26.57071 -12.30245 32.97871L-12.30245 39.02671Q-12.30245 45.65071 -11.79845 50.76271Q-10.07045 51.33871 -7.91045 51.33871L-7.91045 52.85071Q-12.51845 53.06671 -17.63045 54.21871L-18.13445 54.07471Q-17.34245 49.10671 -17.34245 42.69871L-17.63045 42.62671Q-20.07845 46.01071 -24.00245 49.57471Q-27.92645 53.13871 -31.09445 54.21871Q-35.48645 54.21871 -36.78245 50.25871Q-37.64645 47.45071 -37.64645 43.34671Q-37.64645 42.69871 -37.64645 41.90671L-37.28645 21.67471Q-39.01445 21.09871 -41.17445 21.09871L-41.17445 19.58671Q-36.56645 19.37071 -31.45445 18.21871L-30.95045 18.50671Q-32.10245 25.49071 -32.31845 38.66671Q-32.39045 39.38671 -32.39045 40.25071Z" fill="rgb(42,26,38)" fill-opacity="1.00" transform="matrix(3.235346 0 0 3.235346 741.483088 245.066827) translate(0 -4.546080111327399)"></path><path d="M4.68955 40.46671Q4.68955 32.97871 8.72155 26.75071Q12.75355 20.52271 19.52155 18.21871Q23.40955 18.21871 26.57755 18.93871Q26.57755 9.57871 26.07355 5.40271Q24.34555 4.82671 22.18555 4.82671L22.18555 3.31471Q26.79355 3.09871 31.90555 1.94671L32.40955 2.30671Q31.18555 9.36271 31.18555 26.06671L31.18555 39.24271Q31.18555 46.58671 31.68955 50.76271Q33.41755 51.33871 35.57755 51.33871L35.57755 52.85071Q30.96955 53.06671 25.85755 54.21871L25.35355 53.93071Q26.14555 48.96271 26.14555 42.69871L25.85755 42.62671Q23.33755 46.22671 19.88155 49.61071Q16.42555 52.99471 13.32955 54.21871Q9.36955 54.21871 7.02955 49.82671Q4.68955 45.43471 4.68955 40.46671ZM10.44955 37.22671Q10.44955 40.82671 11.70955 44.57071Q12.96955 48.31471 15.34555 48.31471Q17.86555 48.31471 21.46555 44.71471Q25.06555 41.11471 26.14555 38.23471Q26.14555 27.50671 25.64155 24.41071Q21.82555 22.68271 18.26155 22.68271Q14.69755 22.68271 12.82555 24.41071Q10.44955 29.88271 10.44955 37.22671Z" fill="rgb(42,26,38)" fill-opacity="1.00" transform="matrix(3.235346 0 0 3.235346 741.483088 245.066827) translate(0 -4.546080111327399)"></path><path d="M57.53755 33.41071L57.53755 39.45871Q57.53755 47.23471 58.04155 50.97871Q60.05755 51.41071 62.57755 52.34671L62.43355 53.71471Q58.40155 53.13871 54.80155 53.13871Q51.20155 53.13871 47.52955 53.57071L47.31355 52.20271Q49.47355 51.26671 51.56155 50.76271Q52.20955 45.86671 52.20955 39.45871L52.20955 33.41071Q52.20955 27.57871 51.63355 21.74671Q49.76155 21.17071 47.74555 21.17071L47.74555 19.65871Q53.28955 19.29871 57.96955 18.21871L58.47355 18.50671Q57.53755 24.05071 57.53755 33.41071ZM58.83355 8.49871Q58.32955 9.43471 57.06955 10.87471Q55.80955 12.31471 54.94555 12.89071Q54.08155 12.31471 52.82155 10.87471Q51.56155 9.43471 51.05755 8.49871Q51.48955 7.63471 52.71355 6.51871Q53.93755 5.40271 54.94555 4.89871Q55.88155 5.47471 57.10555 6.59071Q58.32955 7.70671 58.83355 8.49871Z" fill="rgb(42,26,38)" fill-opacity="1.00" transform="matrix(3.235346 0 0 3.235346 741.483088 245.066827) translate(0 -4.546080111327399)"></path><path d="M87.84955 54.21871Q81.58555 54.21871 77.55355 50.00671Q73.52155 45.79471 73.52155 38.95471Q73.52155 32.11471 77.66155 26.03071Q81.80155 19.94671 88.56955 18.21871Q95.26555 18.21871 98.72155 22.10671Q102.17755 25.99471 102.17755 32.83471Q102.17755 39.67471 98.14555 45.72271Q94.11355 51.77071 87.84955 54.21871ZM86.62555 22.68271Q83.60155 22.68271 81.65755 24.41071Q79.28155 28.94671 79.28155 34.85071Q79.28155 40.75471 81.94555 45.25471Q84.60955 49.75471 89.07355 49.75471Q92.09755 49.75471 94.11355 47.95471Q96.41755 43.56271 96.41755 37.26271Q96.41755 30.96271 94.00555 26.82271Q91.59355 22.68271 86.62555 22.68271Z" fill="rgb(42,26,38)" fill-opacity="1.00" transform="matrix(3.235346 0 0 3.235346 741.483088 245.066827) translate(0 -4.546080111327399)"></path></g></g>

        </g>
      
  </svg>